# xmcd
#
# Track frame offsets:
# 150
# 16869
# 26957
# 41743
# 55387
# 70069
# 83818
# 95660
# 111260
# 127658
# 144121
# 161699
# 177079
# 191962
# 207757
# 221555
#
# Disc length: 3142 seconds
#
#
# Revision: 3
# Processed by: cddbd v1.5.2PL0 Copyright (c) Steve Scherf et al.
# Submitted via: FreeRIP 2.30 
#
DISCID=df0c4410
DTITLE="El Chachi" Manuel Lopez-Ruiz - Gypsy Rumba Flamenc - Spanish Gypsy
DYEAR=1900
DGENRE=
TTITLE0=1190-1 Spanish gypsy 3-40
TTITLE1=1208-1 Ven ven mulata 2-12
TTITLE2=1208-2 Lel-lere-bay-bay 3-14
TTITLE3=1208-3 Bona Barcelona 92 2-59
TTITLE4=1190-4 Te quiero 3-16
TTITLE5=1208-4 Rumba sitana si 3-01
TTITLE6=1208-5 Seguramente 2-36
TTITLE7=1208-6 Canto a las estrellas 3-25
TTITLE8=1208-7 Maria-Lola sevillana 3-36
TTITLE9=1190-8 Marinero 3-37
TTITLE10=1208-8 Buleria de Manuel 3-52
TTITLE11=1208-9 Lailo-lailo 3-22
TTITLE12=1208-10 Romance y verso 3-15
TTITLE13=1208-11 Almas de carmin 3-28
TTITLE14=1190-11 Gitano soy 3-00
TTITLE15=1208-12 Tu amor y el mio 3-06
EXTD=
EXTT0=
EXTT1=
EXTT2=
EXTT3=
EXTT4=
EXTT5=
EXTT6=
EXTT7=
EXTT8=
EXTT9=
EXTT10=
EXTT11=
EXTT12=
EXTT13=
EXTT14=
EXTT15=
PLAYORDER=
